<?xml version="1.0" standalone="no"?>
<!DOCTYPE svg PUBLIC "-//W3C//DTD SVG 20010904//EN"
 "http://www.w3.org/TR/2001/REC-SVG-20010904/DTD/svg10.dtd">
<svg version="1.0" xmlns="http://www.w3.org/2000/svg"
 width="255.000000pt" height="200.000000pt" viewBox="0 0 255.000000 200.000000"
 preserveAspectRatio="xMidYMid meet">

<g transform="translate(0.000000,200.000000) scale(0.100000,-0.100000)"
fill="#000000" stroke="none">
<path d="M725 1557 c9 -116 9 -480 0 -553 -5 -46 -4 -63 5 -69 8 -5 11 -4 7 2
-8 12 54 57 141 103 l62 33 0 217 0 217 -111 66 -110 65 6 -81z m99 -138 c-3
-5 1 -12 9 -15 10 -3 14 -26 14 -87 0 -45 2 -119 5 -164 2 -45 1 -80 -4 -77
-4 3 -8 -6 -8 -20 0 -14 -4 -26 -10 -26 -5 0 -10 5 -10 11 0 6 -7 8 -16 5 -17
-6 -46 48 -37 71 3 7 0 13 -6 13 -16 0 -15 210 2 246 24 55 40 74 54 62 7 -5
10 -14 7 -19z"/>
<path d="M1882 1603 c-23 -15 -39 -29 -37 -32 3 -2 13 3 22 11 48 41 51 35 52
-95 1 -67 4 -123 6 -126 3 -2 5 57 5 132 0 76 -1 137 -3 137 -2 0 -22 -12 -45
-27z"/>
<path d="M1773 1540 c-13 -5 -23 -12 -23 -15 0 -9 16 -5 36 10 22 16 19 18
-13 5z"/>
<path d="M1712 1308 c2 -203 6 -179 10 70 2 72 0 132 -4 132 -5 0 -7 -91 -6
-202z"/>
<path d="M1924 1060 c0 -63 1 -89 3 -57 2 31 2 83 0 115 -2 31 -3 5 -3 -58z"/>
<path d="M998 1028 c11 -14 52 -31 52 -22 0 2 -15 11 -32 20 -28 14 -31 15
-20 2z"/>
<path d="M1090 976 c0 -6 122 -77 126 -73 3 2 -22 20 -55 40 -56 35 -71 42
-71 33z"/>
<path d="M757 919 c7 -7 15 -10 18 -7 3 3 -2 9 -12 12 -14 6 -15 5 -6 -5z"/>
<path d="M1264 876 c11 -9 24 -16 30 -16 12 0 7 5 -24 19 -24 11 -24 11 -6 -3z"/>
<path d="M2 208 l-2 -198 48 2 47 1 -42 4 -43 4 -3 192 -2 192 -3 -197z"/>
<path d="M1084 326 c-3 -8 -4 -29 -2 -48 3 -31 6 -33 42 -36 21 -2 43 1 49 7
8 8 -2 9 -36 5 l-47 -7 0 41 0 41 48 4 47 3 -48 2 c-33 1 -49 -2 -53 -12z"/>
<path d="M249 248 c0 -62 0 -63 -17 -38 -37 54 -60 71 -26 20 20 -30 40 -56
45 -58 5 -2 9 28 9 67 0 39 -2 71 -5 71 -3 0 -5 -28 -6 -62z"/>
<path d="M1198 287 c-3 -19 -2 -25 4 -19 6 6 8 18 6 28 -3 14 -5 12 -10 -9z"/>
<path d="M89 264 c-2 -5 -2 -56 2 -114 3 -58 6 -81 7 -52 1 36 9 62 22 79 l19
24 36 -50 c20 -28 39 -51 42 -51 5 0 -63 98 -100 144 -13 16 -26 25 -28 20z"/>
<path d="M506 231 c-10 -11 -16 -26 -13 -33 4 -10 6 -10 6 1 1 8 8 23 18 33 9
10 14 18 11 18 -3 0 -13 -9 -22 -19z"/>
<path d="M858 243 c6 -2 18 -2 25 0 6 3 1 5 -13 5 -14 0 -19 -2 -12 -5z"/>
<path d="M1251 236 c-9 -11 -9 -16 1 -22 7 -4 10 -4 6 1 -4 4 -3 14 3 22 6 7
9 13 6 13 -2 0 -10 -6 -16 -14z"/>
<path d="M1454 225 c-9 -14 -15 -27 -13 -30 3 -2 12 10 21 26 21 36 15 39 -8
4z"/>
<path d="M2118 243 c7 -3 16 -2 19 1 4 3 -2 6 -13 5 -11 0 -14 -3 -6 -6z"/>
<path d="M2400 226 c0 -2 8 -10 18 -17 15 -13 16 -12 3 4 -13 16 -21 21 -21
13z"/>
<path d="M412 200 c0 -14 2 -19 5 -12 2 6 2 18 0 25 -3 6 -5 1 -5 -13z"/>
<path d="M1551 204 c0 -11 3 -14 6 -6 3 7 2 16 -1 19 -3 4 -6 -2 -5 -13z"/>
<path d="M1850 211 c0 -6 -21 -12 -47 -14 l-48 -3 53 -2 c40 -2 52 1 52 13 0
8 -2 15 -5 15 -3 0 -5 -4 -5 -9z"/>
<path d="M823 165 c0 -27 2 -38 4 -22 2 15 2 37 0 50 -2 12 -4 0 -4 -28z"/>
<path d="M1270 206 c0 -2 8 -10 18 -17 15 -13 16 -12 3 4 -13 16 -21 21 -21
13z"/>
<path d="M1362 159 c-3 -96 61 -160 158 -158 l45 2 -55 7 c-99 13 -131 46
-141 145 l-6 60 -1 -56z"/>
<path d="M1087 183 c-4 -3 -7 -28 -7 -54 0 -44 3 -49 26 -55 14 -4 40 -2 57 4
31 9 30 10 -21 11 l-54 1 4 50 c1 28 3 50 2 50 0 0 -4 -3 -7 -7z"/>
<path d="M1176 175 c37 -17 48 -38 33 -68 -10 -21 -10 -21 5 -3 9 11 16 24 16
28 0 16 -49 58 -67 57 -12 0 -7 -5 13 -14z"/>
<path d="M1632 165 c0 -16 2 -22 5 -12 2 9 2 23 0 30 -3 6 -5 -1 -5 -18z"/>
<path d="M1930 105 c-5 -74 -7 -80 -30 -86 -20 -6 -21 -7 -5 -8 40 -2 46 12
43 95 l-4 79 -4 -80z"/>
<path d="M2183 130 c0 -30 2 -43 4 -28 2 16 2 40 0 55 -2 16 -4 3 -4 -27z"/>
<path d="M2340 176 c0 -2 8 -10 18 -17 15 -13 16 -12 3 4 -13 16 -21 21 -21
13z"/>
<path d="M2510 167 c0 -5 7 -15 15 -23 22 -22 19 -80 -5 -104 -22 -22 -43 -28
-110 -33 -25 -2 -3 -4 48 -5 l92 -2 0 64 c0 49 -5 69 -20 87 -10 13 -19 20
-20 16z"/>
<path d="M1783 138 c-53 -26 -9 -89 51 -74 22 5 26 12 26 40 0 45 -29 57 -77
34z m67 -33 c0 -22 -4 -25 -34 -25 -37 0 -51 12 -42 35 3 9 19 15 41 15 31 0
35 -3 35 -25z"/>
<path d="M1681 104 c0 -23 5 -48 15 -60 8 -10 12 -12 8 -4 -5 8 -11 35 -15 60
l-6 45 -2 -41z"/>
<path d="M2430 119 c14 -12 23 -29 22 -38 -3 -12 -1 -13 7 -5 17 15 4 39 -27
53 l-27 11 25 -21z"/>
<path d="M411 114 c-1 -11 6 -29 15 -40 8 -10 12 -13 9 -6 -4 8 -11 26 -15 40
-7 22 -8 23 -9 6z"/>
<path d="M490 121 c0 -6 4 -13 10 -16 6 -3 7 1 4 9 -7 18 -14 21 -14 7z"/>
<path d="M1440 123 c0 -5 10 -18 23 -29 l22 -19 -20 25 c-11 14 -21 27 -22 29
-2 2 -3 0 -3 -6z"/>
<path d="M751 84 c0 -11 3 -14 6 -6 3 7 2 16 -1 19 -3 4 -6 -2 -5 -13z"/>
<path d="M636 83 c5 -5 12 -12 16 -18 4 -6 8 -2 8 8 0 9 -7 17 -17 17 -9 0
-12 -3 -7 -7z"/>
<path d="M1580 86 c0 -2 7 -6 15 -10 8 -3 15 -1 15 4 0 6 -7 10 -15 10 -8 0
-15 -2 -15 -4z"/>
<path d="M2330 79 c0 -5 5 -7 10 -4 6 3 10 8 10 11 0 2 -4 4 -10 4 -5 0 -10
-5 -10 -11z"/>
<path d="M558 73 c12 -2 32 -2 45 0 12 2 2 4 -23 4 -25 0 -35 -2 -22 -4z"/>
<path d="M863 73 c9 -2 25 -2 35 0 9 3 1 5 -18 5 -19 0 -27 -2 -17 -5z"/>
<path d="M1508 73 c12 -2 32 -2 45 0 12 2 2 4 -23 4 -25 0 -35 -2 -22 -4z"/>
<path d="M2368 73 c6 -2 18 -2 25 0 6 3 1 5 -13 5 -14 0 -19 -2 -12 -5z"/>
<path d="M2418 73 c7 -3 16 -2 19 1 4 3 -2 6 -13 5 -11 0 -14 -3 -6 -6z"/>
<path d="M1611 43 c-1 -12 -9 -24 -18 -26 -17 -4 -17 -5 0 -6 19 -1 32 21 24
41 -3 7 -6 3 -6 -9z"/>
<path d="M931 34 c0 -11 3 -14 6 -6 3 7 2 16 -1 19 -3 4 -6 -2 -5 -13z"/>
<path d="M2321 34 c0 -11 3 -14 6 -6 3 7 2 16 -1 19 -3 4 -6 -2 -5 -13z"/>
<path d="M474 26 c11 -9 24 -16 30 -16 12 0 7 5 -24 19 -24 11 -24 11 -6 -3z"/>
<path d="M1218 27 c-21 -6 -38 -14 -38 -18 0 -9 60 9 75 22 5 5 7 8 5 8 -3 -1
-22 -6 -42 -12z"/>
<path d="M1728 18 c5 -5 16 -8 23 -6 8 3 3 7 -10 11 -17 4 -21 3 -13 -5z"/>
<path d="M288 13 c12 -2 30 -2 40 0 9 3 -1 5 -23 4 -22 0 -30 -2 -17 -4z"/>
<path d="M1023 13 c9 -2 23 -2 30 0 6 3 -1 5 -18 5 -16 0 -22 -2 -12 -5z"/>
<path d="M2028 13 c12 -2 32 -2 45 0 12 2 2 4 -23 4 -25 0 -35 -2 -22 -4z"/>
<path d="M2213 13 c9 -2 25 -2 35 0 9 3 1 5 -18 5 -19 0 -27 -2 -17 -5z"/>
<path d="M543 3 c15 -2 37 -2 50 0 12 2 0 4 -28 4 -27 0 -38 -2 -22 -4z"/>
<path d="M848 3 c12 -2 30 -2 40 0 9 3 -1 5 -23 4 -22 0 -30 -2 -17 -4z"/>
<path d="M1103 3 c15 -2 37 -2 50 0 12 2 0 4 -28 4 -27 0 -38 -2 -22 -4z"/>
<path d="M1793 3 c15 -2 39 -2 55 0 15 2 2 4 -28 4 -30 0 -43 -2 -27 -4z"/>
</g>
</svg>
